<?xml version="1.0" standalone="no"?>
<!DOCTYPE svg PUBLIC "-//W3C//DTD SVG 20010904//EN"
 "http://www.w3.org/TR/2001/REC-SVG-20010904/DTD/svg10.dtd">
<svg version="1.0" xmlns="http://www.w3.org/2000/svg"
 width="260.000000pt" height="260.000000pt" viewBox="0 0 260.000000 260.000000"
 preserveAspectRatio="xMidYMid meet">
<metadata>
Created by potrace 1.11, written by Peter Selinger 2001-2013
</metadata>
<g transform="translate(0.000000,260.000000) scale(0.100000,-0.100000)"
fill="#000000" stroke="none">
<path d="M0 2315 l0 -285 24 0 c34 0 56 10 56 25 0 7 7 18 15 25 9 7 14 18 11
25 -2 6 9 20 25 31 22 14 28 25 25 40 -8 31 20 64 55 64 21 0 39 10 60 32 16
18 29 36 29 40 0 4 -11 19 -24 33 -37 40 -94 155 -101 208 l-7 47 -84 0 -84 0
0 -285z"/>
<path d="M825 2566 c-16 -6 -33 -16 -38 -23 -4 -7 -14 -10 -23 -6 -9 3 -27 -7
-46 -26 -30 -31 -56 -34 -81 -11 -13 12 -47 0 -47 -16 0 -8 -6 -14 -13 -14 -7
0 -17 -10 -22 -22 -7 -17 -20 -24 -47 -26 -20 -2 -42 -10 -48 -18 -7 -8 -23
-14 -35 -14 -13 0 -25 -7 -29 -15 -3 -8 -17 -15 -31 -15 -22 0 -25 -4 -20 -19
7 -24 -14 -61 -35 -61 -12 0 -15 -8 -12 -34 3 -28 -1 -37 -26 -55 -17 -12 -34
-32 -38 -44 -3 -12 -12 -29 -19 -37 -7 -8 -16 -26 -20 -40 -4 -14 -22 -42 -40
-62 -17 -21 -37 -57 -44 -80 -7 -24 -17 -57 -22 -74 -5 -18 -9 -45 -8 -60 1
-16 -2 -77 -6 -137 -5 -82 -3 -124 9 -180 8 -39 17 -94 20 -122 2 -27 16 -97
30 -154 28 -112 31 -136 15 -108 -9 15 -18 17 -49 12 -43 -7 -70 12 -70 49 0
13 -7 29 -15 36 -13 11 -15 -6 -15 -146 1 -148 2 -157 15 -126 9 21 26 38 44
45 16 6 32 19 34 28 7 26 53 52 79 45 28 -7 91 -63 107 -93 6 -12 11 -31 11
-43 0 -18 4 -20 22 -14 13 4 28 14 35 23 10 14 13 13 22 -12 6 -15 17 -27 24
-27 30 0 67 -41 73 -81 4 -21 13 -44 22 -51 13 -11 14 -10 10 2 -2 8 4 23 14
34 22 24 22 46 3 110 -8 27 -15 82 -15 123 0 187 86 229 287 137 17 -8 38 -11
47 -8 9 3 22 2 29 -4 6 -6 26 -12 42 -14 22 -2 31 -9 33 -24 2 -13 12 -24 25
-27 12 -2 30 -8 40 -12 27 -11 20 10 -7 23 -17 8 -27 22 -32 47 -4 26 -11 35
-21 31 -20 -8 -6 13 50 74 26 28 47 55 47 60 0 5 6 7 14 4 8 -3 18 7 26 25 7
17 16 31 20 31 4 0 12 12 19 26 10 23 9 26 -4 21 -11 -5 -15 0 -15 17 0 13 7
26 15 29 8 4 24 39 36 79 12 40 37 103 55 139 19 36 34 70 34 77 0 6 11 22 25
36 14 14 25 32 25 40 0 9 16 20 43 27 23 6 58 21 77 32 36 22 39 24 65 26 8 0
15 8 15 16 0 9 9 15 25 15 16 0 25 6 25 15 0 27 38 16 52 -15 7 -16 18 -30 23
-30 13 0 14 39 2 58 -5 7 -3 12 6 12 17 0 72 -49 72 -64 0 -6 12 -12 28 -14
28 -3 35 -20 16 -39 -8 -8 -2 -13 23 -18 26 -6 79 -31 106 -51 2 -1 -1 -11 -7
-22 -13 -24 -4 -34 20 -22 13 7 22 6 33 -6 15 -14 17 -13 22 15 6 30 20 48 30
39 2 -3 -4 -26 -13 -51 -18 -50 -13 -69 11 -44 21 20 40 111 33 153 -8 47 6
42 28 -8 38 -92 46 -107 55 -113 6 -3 10 1 10 10 0 8 7 18 15 21 8 4 15 16 15
28 0 15 3 17 9 7 7 -11 9 -11 13 0 3 8 -2 19 -10 25 -9 6 -17 20 -18 30 -1 11
-7 37 -13 59 -12 47 -6 80 21 115 19 24 19 25 -4 34 -13 6 -27 16 -31 23 -4 7
-17 13 -27 13 -10 0 -22 5 -25 10 -3 6 -19 10 -36 10 -16 0 -29 5 -29 10 0 6
5 10 11 10 5 0 7 5 4 11 -4 6 -26 9 -49 7 -38 -3 -41 -1 -44 23 -2 20 -11 29
-35 36 -18 5 -31 15 -30 21 2 7 -3 12 -11 12 -8 0 -16 7 -20 15 -3 9 -18 15
-37 15 -26 0 -29 3 -20 14 14 16 -4 26 -49 26 -16 0 -30 5 -32 12 -2 6 -21 12
-41 12 -27 1 -37 5 -37 17 0 12 -11 16 -52 15 -29 0 -64 4 -77 9 -17 6 -22 5
-17 -3 4 -7 4 -12 -1 -12 -4 0 -13 11 -20 25 -6 15 -7 25 -1 25 5 0 6 5 3 10
-3 6 -19 10 -36 10 -16 0 -29 -4 -29 -10 0 -5 -7 -10 -16 -10 -11 0 -14 5 -10
17 9 22 -10 33 -61 33 -33 0 -41 3 -37 15 9 23 -25 30 -57 11 -26 -16 -122
-30 -115 -17 2 3 -4 20 -14 36 -20 37 -83 69 -113 59 -24 -9 -59 -6 -67 5 -3
4 -18 2 -35 -3z m265 -1150 c0 -7 -8 -20 -17 -27 -15 -12 -16 -12 -10 4 4 10
7 23 7 28 0 5 5 9 10 9 6 0 10 -6 10 -14z"/>
<path d="M1966 2239 c-16 -16 -17 -19 -3 -24 22 -9 82 -2 80 9 -1 5 -14 15
-30 21 -24 10 -31 9 -47 -6z"/>
<path d="M2060 2200 c0 -5 4 -10 9 -10 6 0 13 5 16 10 3 6 -1 10 -9 10 -9 0
-16 -4 -16 -10z"/>
<path d="M1900 2186 c0 -15 27 -29 34 -18 3 5 -4 13 -15 20 -15 10 -19 10 -19
-2z"/>
<path d="M2018 2123 c6 -2 18 -2 25 0 6 3 1 5 -13 5 -14 0 -19 -2 -12 -5z"/>
<path d="M2567 1856 c-16 -13 -28 -29 -27 -37 6 -43 -26 -56 -127 -54 -39 1
-64 -2 -67 -10 -2 -6 -29 -17 -61 -24 -31 -7 -59 -19 -62 -27 -3 -8 -13 -14
-22 -14 -9 0 -27 -7 -39 -16 -12 -8 -22 -11 -22 -5 0 18 -35 4 -38 -15 -1 -11
10 -49 26 -84 24 -52 52 -148 52 -175 0 -3 -6 -5 -14 -5 -18 0 -76 -94 -83
-134 -3 -22 2 -41 19 -66 13 -19 41 -64 63 -99 21 -35 50 -78 65 -95 51 -58
80 -109 80 -140 0 -30 -3 -32 -57 -45 -32 -7 -98 -33 -147 -58 l-90 -45 -26
28 c-15 16 -36 35 -48 41 -25 15 -33 5 -72 -79 -22 -48 -50 -81 -50 -59 0 14
-43 -6 -112 -53 -33 -21 -46 -36 -41 -46 3 -8 5 -24 5 -35 -1 -11 11 -30 26
-42 33 -27 39 -28 45 -5 2 9 2 -3 -1 -28 -3 -30 -12 -54 -28 -70 -21 -22 -27
-23 -45 -12 -18 11 -24 11 -38 -2 -10 -9 -23 -16 -30 -16 -7 0 -22 -11 -33
-25 -11 -14 -29 -25 -40 -25 -17 0 -18 -3 -8 -15 19 -22 3 -35 -45 -35 -59 0
-93 -14 -107 -46 -11 -24 -10 -29 16 -50 15 -14 31 -22 36 -19 5 3 20 -6 34
-20 14 -14 31 -25 39 -25 7 0 36 -16 63 -35 l49 -35 497 0 498 0 0 940 c0 517
-1 940 -2 940 -2 -1 -16 -11 -31 -24z m-637 -1212 c6 -14 8 -29 5 -34 -3 -5 0
-10 7 -12 7 -3 8 -9 3 -17 -6 -11 -12 -8 -26 10 -16 21 -17 22 -16 4 1 -13 -4
-20 -18 -20 -13 0 -21 -8 -23 -22 -3 -20 -29 -39 -40 -29 -9 10 18 67 47 98
17 18 31 36 31 41 0 18 21 5 30 -19z m124 -359 c12 -70 27 -109 37 -94 7 11
14 9 35 -12 21 -22 25 -32 19 -58 -11 -49 -49 -41 -79 17 -16 30 -18 31 -39
17 -18 -11 -31 -12 -57 -5 -18 5 -44 7 -57 4 -17 -5 -23 -2 -23 10 0 9 -7 16
-15 16 -8 0 -15 -9 -15 -20 0 -28 -30 -26 -31 3 -1 21 -1 21 -9 -3 -6 -22 -8
-23 -15 -7 -4 10 -2 24 5 32 10 13 9 15 -9 15 -17 0 -21 -4 -16 -19 3 -11 1
-22 -5 -26 -15 -9 -42 15 -36 32 3 8 2 11 -3 8 -22 -13 -19 14 3 29 14 8 27
25 31 36 5 14 12 19 22 15 9 -3 23 1 32 9 21 19 61 23 88 8 32 -18 93 -16 93
3 0 8 6 24 12 35 15 23 22 13 32 -45z"/>
<path d="M2233 1839 c-50 -15 -39 -24 32 -27 73 -4 92 2 74 24 -13 16 -58 17
-106 3z"/>
<path d="M0 1372 l0 -77 18 35 c15 29 20 67 13 101 0 4 -8 9 -16 13 -13 4 -15
-7 -15 -72z"/>
<path d="M1965 1301 c-6 -4 -31 -14 -57 -21 -26 -7 -53 -19 -59 -26 -6 -8 -20
-14 -30 -14 -10 0 -21 -4 -24 -10 -3 -5 -17 -10 -31 -10 -13 0 -24 -4 -24 -10
0 -5 -13 -10 -29 -10 -17 0 -32 -4 -35 -9 -9 -14 -90 -51 -110 -51 -23 0 -86
-65 -86 -89 0 -33 55 -46 177 -43 62 2 113 -1 113 -6 0 -4 -15 -16 -32 -25
l-33 -16 29 0 c44 -1 101 19 132 46 16 14 44 31 62 38 18 8 35 22 39 32 4 10
12 22 20 26 7 4 13 24 13 43 0 24 8 43 25 60 26 26 45 56 45 72 0 5 -20 15
-44 21 -54 13 -50 13 -61 2z"/>
<path d="M583 1148 c-36 -18 -57 -74 -55 -154 1 -80 18 -137 32 -114 5 8 12
44 16 80 8 76 22 115 58 152 21 22 31 26 49 19 17 -6 22 -16 22 -42 0 -31 3
-34 33 -37 28 -3 32 0 32 22 0 27 -41 66 -71 66 -10 0 -21 5 -24 10 -8 13 -64
12 -92 -2z"/>
<path d="M1030 1069 c0 -5 5 -7 10 -4 6 3 10 8 10 11 0 2 -4 4 -10 4 -5 0 -10
-5 -10 -11z"/>
<path d="M755 996 c-11 -9 -38 -21 -60 -27 -53 -15 -75 -36 -75 -73 0 -55 43
-89 101 -80 29 5 45 1 67 -15 33 -23 82 -28 82 -8 0 6 -12 23 -25 36 -21 20
-24 29 -19 60 3 20 12 49 20 65 20 42 10 44 -28 5 l-33 -34 -5 43 c-5 41 -6
42 -25 28z"/>
<path d="M590 807 c0 -20 51 -65 81 -72 47 -12 43 13 -5 37 -26 12 -46 28 -46
35 0 7 -7 13 -15 13 -8 0 -15 -6 -15 -13z"/>
<path d="M901 712 c-1 -18 -6 -42 -12 -54 -9 -17 -8 -19 8 -16 21 4 28 43 14
78 -9 24 -10 24 -10 -8z"/>
<path d="M600 726 c0 -2 7 -9 15 -16 13 -11 14 -10 9 4 -5 14 -24 23 -24 12z"/>
<path d="M650 680 c20 -13 33 -13 25 0 -3 6 -14 10 -23 10 -15 0 -15 -2 -2
-10z"/>
<path d="M0 166 l0 -166 110 0 c105 0 110 1 110 21 0 13 -5 19 -12 16 -10 -3
-12 7 -9 39 1 24 7 44 11 44 10 0 -47 88 -93 144 -30 36 -43 44 -94 60 l-23 7
0 -165z"/>
</g>
</svg>
